<?xml version="1.0" encoding="UTF-8"?>
<svg id="Layer_1" xmlns="http://www.w3.org/2000/svg" version="1.1" viewBox="0 0 810 712.95">
  <!-- Generator: Adobe Illustrator 30.6.0, SVG Export Plug-In . SVG Version: 2.1.4 Build 109)  -->
  <defs>
    <style>
      .st0 {
        fill: #f9f9f9;
      }

      .st1 {
        fill: #fdfdfd;
      }
    </style>
  </defs>
  <path class="st1" d="M121.23,524.58c-2.82-9.76-2.17-19.1-1.6-28.52l.68-11.22c.17-2.83-1.22-7.45,2.13-9.73,13.72-9.3,14.43-4.09,18.12-28.78,1.44-9.66-.2-19.23-1.67-28.66l-.1-24.57c-.03-8.51-1.5-16.5-.02-25.14l-9.96-25.56c-4.55-11.68-34.71-42.4-52.1-74.71-2.51-4.66-4.84-7.95-9.02-11.2-7.7-5.98-11.75-15.06-16.73-23.18l-14.11-23c-9.42-15.35-19.59-29.51-26.91-46.23-.14-9.34-3.09-18.08-3.93-27.27s-.72-18.29-.89-27.25c-.13-7.11-.83-13.49-1.45-20.76-.71-8.37,1.87-17.18,4.01-25.32,3.59-13.59,11.49-24.84,22.29-33.69C53.08,10.88,70.11,5.88,99.02,0l.62,25.11c.4,16.05-1.71,31.58-.22,47.92-8.07,1.03-15.7,6.06-16.97,13.88l-2.81,17.29c.05,7.32.98,14.44-.76,21.68-1.29,5.33.36,9.42,2.37,14.16,5.57,13.1,11.67,25.85,21.6,36.42,10.81,11.51,18.35,23.95,26.8,37.31l30.56,42.26c4.42,6.11,9.36,10.23,13.36,16.89l22.45,37.36c8.56,14.25,12.97,28.98,14.43,45.73l.38,36.05c.08,7.96.31,15.5-3.38,22.98,2.05,10.55.49,20.47.46,30.93l-.14,38.79c-9.54,28.37-28.1,42.6-54.92,53.95-6.83,2.89-12.97,3.94-20.48,3.83l-12.03,2.29c-1.09-6.65-2.16-13.46.89-20.24Z"/>
  <path class="st1" d="M431.94,543.45c-15.19,4.29-33.23-.89-46.47-9.66l-29.52-19.55-8.33-14.57c-4.73-8.26-8.01-17.35-7.88-27.14l1.04-74.15,1.23-25.34v-32.03s-1.44-10.84-1.44-10.84c2.07-7.53,3.51-14.26,1.65-22.16l.86-13.9c-.95-8.5-.89-16.24-.45-24.66l1.2-23.39-1.26-13.02.17-34.76c-2.17-20.55-3.18-40.39-3.13-61.2l.11-44.01c.02-8.26-.71-15.99-2.57-24.06-.66-2.84.81-5.57,2.08-7.9,3.01-4.19,4.17-8.71,3.81-13.96,12.4-20.6,23.46-32.77,46.53-39.79,10.73-3.26,21.02-5.51,32.34-4.69l8.85-1.84,2.13,16.4c-1.04,7.46-4.11,15.11-3.56,22.8.6,8.33,2.55,16.08,1.14,24.37l-6.74,4c-14.9,8.85-5.04,26.72-9.77,47.48-1.37,6.02.44,9.91.62,15.66l1.17,38.48c.32,10.57-.15,20.65-1.74,31.07,1.95,6.51-.6,12.54-.7,19l-1.03,63.05.51,116.81c.05,11.24-1.7,21.26-3.4,32.09-.62,3.93,4.69,8.45,1.07,15.32-3.25,6.16,2.75,9.61,3.04,18.27,4.48,6.17,11.56,9.07,18.37,11.7l.61,14.79-.5,51.35Z"/>
  <path class="st1" d="M734.2,537.78c-9.92-18.09.24-28.56-2.5-39.2-1.6-6.2-2.7-11.94-2.74-18.67l-.79-130.74,2.03-11.18-1.53-32.99.23-52.96-.6-62.96c-.07-7.42-1.46-13.77-3.62-21.43l43.49-.02,14.31-1.07,18.69-1.27.65,27.9,2.54,61.88.74,72.94c.15,14.92-.96,29.03,1.72,43.77-1.79,14.41-1.28,28.47-1.38,43.29l-.42,59.96,3.7,47.1c.4,5.05.33,9.9-2.14,14.34-24.32,2.29-47.81,2.78-72.36,1.3Z"/>
  <path class="st1" d="M708.97,145.25c-13.09,2.99-27.26,1.68-39.94.39-4.04-.41-6.38-3.52-6.45-6.96l-.72-35.38c-.22-10.84-4.45-19.68-.58-22.05,9.42-5.76,18.46-2.89,29.81-7.3l16.55-6.43,7.82-9.2c6.36-7.49,10.28-16.01,12.62-25.43l5.38-21.63c6.48-1.29,13.05-3.87,19.57-2.62,5.51,1.06,9.78-.32,15.27-.32h15.99c7.1-1.67,14.67.54,20.35,3.63,1.51,12.06-2.04,22.61-2.31,34.05l-.77,33.04-1.52,44.99c-.23,6.92-1.09,13.08.71,20.64l-27.85-.33-49.62.45c-5.25.05-8.45-.89-14.3.45Z"/>
  <path class="st1" d="M100.67,545.46c-9.55-.68-17.93-1.85-26.69-4.3-26.5-.37-52.5-29.59-62.57-53.13-5.59-13.06-6.35-26.92-6.16-40.96-2.11-10.72-2.77-21.06-2.9-32.01l-.41-33.81c-.04-3.37-2.44-6.7-1.85-10.21,1.47-3.92,6.76-8.43,11.07-8.79l41.09-3.52c8.77,5.85,15.01-1.86,20.25,1.55,1.66,1.08,2.97,3.16,2.97,5.79l.07,38.57c.01,7.39,1.96,13.86,2.79,21.1,1.58,13.71-.17,28.21,5.09,41.35,2.27,5.67,10.98,7.38,16.59,8.49,1.79,20.1,1.76,40.07.22,60.45l.43,9.46Z"/>
  <path class="st1" d="M481.79,541.03l-30.68,3.93-1.01-35.91.93-32.79,11.22-1.37c2.85-.35,7.49-4.18,7.17-7.71-1.37-15.14-1.19-29.4,1.53-44.2,1.73-9.39-.31-18.5-1.03-28.05-.15-1.99,3.79-3.85,5.71-3.56,14.26,2.1,27.39-.73,41.59-1.72,8.09-.56,16.94,2.59,24.65,4.08,4.93.95,3.91,8.04,3.53,11.35-1.83,16.11-1.93,31.48-.6,47.43,1.4,16.84-2.1,32.98-8.5,48.6-2.86,6.98-6.25,13.01-12.01,18.14l-20.02,17.83-22.49,3.96Z"/>
  <path class="st1" d="M146.58,170.35c-6.2-.79-9.73-6.5-9.16-12.25-.28-5.51.57-11.01-1-16.21-1.86-6.16-2.15-11.89-.5-18.12,2.24-8.43,1.13-17.01,1.64-25.69.73-12.4-6.75-22.85-19.35-24.89l.16-32.12.52-38.95c12.04,2.09,23.05,3.93,33.62,8.68,5.75,2.58,10.89,5.85,17.44,6.54,11.84,9.34,22.11,19.56,31.7,31.22,8.04,19.37,10.73,39.53,9.43,60.51-.6,9.79-.23,19.26,1.3,28.75l-29.65,14.9c-11.96,6.01-22.19,14.13-36.16,17.64Z"/>
  <path class="st1" d="M493.15,152.71c-4.81,2.41-9.87,7.44-15.59,5.52-4.37-1.47-6.35-8.46-6.24-13.11.34-15-.54-28.96-2.36-43.68l.04-25.13c-5.41-10.17-6.9-10.13-17.88-12.42l.21-15.66c1.28-5.56.5-9.92.37-15.32l-.77-32.32,17.36,2.23,14.77-.36,12.21,5.55c26.19,5.32,39.08,24.37,49.18,47.98l-.26,37.11-3.68,36.85-26.25,12.18-21.1,10.59Z"/>
  <path class="st0" d="M293.97,709.71c-5.02,1.1-11.45,1.23-16.64.96-5.6-.29-8.31-5.89-8.86-10.86l-3.75-34.04-2.97-9.89-.57-20.66c2.79.34,5.07.25,6.68-.97,2.08-1.59,1.71-4.5,1.84-7.2.72-14.72,2.92-31.31-7.79-28.62l-.3-18.3c5.84.04,11.77-.3,17.66,2.19,4.89,2.06,8.94,8.06,9.07,13.67l.85,35.02c.2,8.19-4.06,15.07-12.27,17.38,10.15,6.24,7.13,20.1,8.43,29.61l1.42,10.38c.68,5,1.16,10.56,4.76,14.42,1.28,1.38,4.5,3.88,2.45,6.91Z"/>
  <path class="st0" d="M128.3,702.9l.34-14.86.12-34.68-5.11-.71-3.34-16.77,7.9-.8.09-33-.42-22.82,20.09.28-.1,45.52-.62,50.96-.46,34.59c-5.56.39-11.09.83-16.46-.01-2.99-.47-2.08-5.5-2.03-7.69Z"/>
  <path class="st0" d="M35.36,712.46l-.57-13.53c-.14-3.39,1.85-3.98,3.5-5.8,3.39-3.73,1.32-9.49,1.32-14.01,0-6.77.24-13.11-3.79-18.72l-13.78-19.18-13.46-21.42c-2.98-4.74-1.65-11.17-2.22-16.7-1.63-15.96,8.74-23.34,23.55-25.59v18.07c-6.36,1.38-6.66,14.82-1.81,21.63l12.91,18.09c5.63,7.89,11.99,15.12,15.27,24.47,2.37,6.77,1.03,14.14.86,21.21l-.44,17.68c-3.48,8.24-11.34,13.33-21.35,13.8Z"/>
  <path class="st0" d="M237.52,671.05l-.23-15.92c-1.44-.36-4.79-.36-5.07-1.93l-3.13-17.22c3.02-1.28,5.93-.65,9.04-.93l-.25-13.71.47-13.31-.71-24.8c-.03-1.12.74-3.67,1.85-3.67l17.49-.1-.6,8.32.05,13.26-.27,46,.16,25.03.53,38.76-18.83.55-.5-40.33Z"/>
  <path class="st0" d="M116.47,695.28c.03,9.98-11.73,17.6-23.68,17.59l.21-17.75c2.17-.64,5.23-2.17,4.32-4.94-1.26-3.82-.41-7.44-.38-11.23l.16-16.87-.14-41.75-.03-13.6-.21-26.86,18.42-.53.35,25.4.77,27.34.11,31.58.1,31.61Z"/>
  <path class="st0" d="M770.68,710.82l-.22-21.78-.53-36.73c-1-.49-3.66-1.03-3.83-2.12l-2.42-15.76c-.3-1.92,4.31-1.96,5.4-2.52,2.39-4.21.73-10.41.68-14.99l-.37-38.05,18.8.4.33,15.21.19,33.44-.15,18.24.46,22.93-.03,42.29-18.31-.56Z"/>
  <path class="st0" d="M187.93,710.69l-.02-19.68-.45-38.14c-.36-1.13-2.74-1.83-3.87-2.17l-2.32-17.23,5.72-1.43c1.47-5.14.16-9.94.35-15.03.48-12.8.83-25-.46-38.11l19.17.4.15,33.73.07,21.69.11,33.36.23,43.14-18.68-.54Z"/>
  <path class="st1" d="M431.59,710.85c-1.7-6.72-.24-13.1-.35-19.78l-.62-38.05c-.02-1.38-3.13-1.94-3.82-2.39l-2.39-15.41c-.38-2.44,3.35-2.8,5.08-2.83,2.7-3.87.91-9.78,1.08-14.38.48-13.17,1.06-25.56-.53-39.04l19.27.38.19,33.65-.02,22.14.15,32.04.3,44.19-18.35-.52Z"/>
  <path class="st0" d="M87.73,695.43l.46,17.52c-10.3-1.39-22.39-7.92-22.6-15.03l-.69-23.81.18-21.01-.1-53.74-.54-20.06,18.59.04-.28,26.77.95,37.95.62,17.03-.52,30.03c-.04,2.12,1.82,3.59,3.92,4.33Z"/>
  <path class="st0" d="M403.18,710.97l-18.22-.02.5-25.87-.32-17.03-.57-55.98-.02-32.34,18.61-.15.25,53.64.31,23.83.28,40.99c.03,4.28.61,8.02-.81,12.94Z"/>
  <path class="st0" d="M520,711.81l-5.82-26.75-14.07.08,2.63-17.59,8.17-.48-2.35-24-4.14-36.97c-1.03-9.21-.54-17.94-3.24-26.93l13.52.63c4.05,7.92,3.56,16.81,5.21,25.53l4.46,23.52,6.67,42.21c2.09,13.23,3.32,25.88,6.93,38.88-4.25,2.39-10.3-.25-17.97,1.87Z"/>
  <path class="st0" d="M665.78,695.28c1.6-.5,3.31-.81,3.83-1.44s1.02-2.44,1.05-3.72l.59-23.04-.02-17.07-1.37-16.91.15-30.19c.02-4.63-1.2-5.72-3.23-9.51-1.86-3.46.14-10.32-1.39-15.76,8.27.26,17.67,4.81,21.22,12.83,2.87,6.48,1.68,14.57,1.97,21.5l.79,19.04-.46,36.09c-.14,10.98,2.36,22.41-1.05,32.95-2.92,9.02-13.38,12.52-22.02,12.42l-.06-17.19Z"/>
  <path class="st0" d="M348.8,695.89c1.79,5.46.22,10.9.69,16.43-5.21,1.6-9.5-1.15-13.86-3.64-5.83-3.33-9.42-8.53-9.27-15.69l.65-30.91-.14-38.79-.56-22.25c-.15-6.06-.36-11.54,3.86-16.34,5.69-6.47,16.6-7.76,18.37-6.84,2.58,1.35-.51,7.61.66,15.07l-3.54,3.34-.28,20.81-.74,60.81c-.06,5.02-1.44,9.42.09,14.56l4.08,3.41Z"/>
  <path class="st0" d="M660.59,694.45l.79,18.19c-10.11-.58-22.29-8.01-22.49-16.92l-.66-29.78-.11-63.76c-.01-7.54.79-12.69,6.5-17.91,4.34-3.98,9.82-6.7,16.61-6.7l-.52,16.97c-1.7,1.49-5.1,3.19-4.4,6.4,1.09,5.04-.06,10.05-.03,15.21l.23,45.35.21,29.63c.01,1.83,2.59,2.59,3.87,3.31Z"/>
  <path class="st0" d="M601.17,710.57c-3.73,1.72-7.14.5-10.95.3l-7.56-.4-11.27-38.33-7.03-24.28-12.46-39.42c-3.11-9.85-6.65-18.72-11.1-28.73l18.49-.34,5.85,17.62,7.38,23.67,9.93,31.16,6.34,17.66,12.38,41.1Z"/>
  <path class="st0" d="M758.48,710.47c-4.69,2.1-11.96.28-18.59-.32l-11.29-38.29-7.04-24.27-12.25-38.58c-3.19-10.04-6.67-19.06-11.19-29.27l18.26-.48,8.45,26.98,5.47,15.61,15.07,45.9,13.11,42.71Z"/>
  <path class="st0" d="M472.28,681l-2.21-13.44,10.11-.42,6.82-41.4c.56-3.4,1.55-5.77,2.11-9.29l3.42-21.33c.83-5.21,1.67-10.16,4-15.54l6.43,57.17-6.54,40.68-5.09,33.86-17.56.16,4.01-24.71c-2.39-1.43-4.95-2.42-5.5-5.74Z"/>
  <path class="st0" d="M717.71,710.74l-19.7.23-.28-44.84.36-18.93-.43-55.46,18.76,54.16,1.53,45.12c.22,6.46.96,12.29-.24,19.71Z"/>
  <path class="st0" d="M560.37,710.85l-19.83-.07.22-33.73v-29.4s-.26-55.97-.26-55.97l18.45,53.49,1.19,31.93.35,11.55c.54,7.35,1.17,14.05-.13,22.2Z"/>
  <path class="st0" d="M601.73,699.21l-5.4-21.2-8.69-29.37c-1.71-5.78-5.1-11.3-5.31-17.53l-.87-25.99.14-25.79,18.97.31.42,57.39.79,26.05-.05,36.13Z"/>
  <path class="st0" d="M759.25,698.44l-5.66-20.56-8.5-28.7c-1.77-5.96-5.28-11.72-5.5-18.1l-.88-24.94.19-27,18.92.45.43,57.46.77,26.02.24,35.37Z"/>
  <path class="st0" d="M153.31,653.13l-.27-18.02c2.81.17,4.82-.07,6.25-1.43,1.69-1.61,2.08-3.87,2-6.6l-.62-23.06c-.06-2.29-.49-4.67-2.04-5.88-1.43-1.11-3.73-1.36-6.07-1.45l-.13-17.18,13.83.12c5.45.05,12.3,7.28,12.34,13.41l.29,46.88c.05,7.95-13.23,14.58-25.59,13.21Z"/>
  <path class="st0" d="M29.58,695.38c1.69,5.26.57,11.1.58,17.13-10.44.74-20.73-6.13-22.95-17.34-1.78-8.98-1.43-18.17-1.63-27.23,6.68-1.71,12.35-1.48,18.47-1.17l1.58,25.62c.09,1.51,3.04,2.28,3.95,2.99Z"/>
  <path class="st0" d="M366.54,710.66l-12.34,2.21c-.54-5.93-.63-11.45.11-17.37,1.79-.16,3.17-.63,3.75-1.34.5-.61,1.33-12.52.49-19.56l11.69-.44c2.69-.1,5.14.04,7.59,1.49l-.46,16.47c-.21,7.52-3.46,15.3-10.83,18.54Z"/>
  <path class="st0" d="M46.32,617.83c-1.67.83-4.74,2.4-6.12,1.41-3.93-10.85,3.23-19.95-5.31-23.77l-.11-17.45c9.21.95,17.56,5,21.16,13.16,2.89,6.57,1.59,14.18,1.84,20.92l-11.45,5.73Z"/>
  <path class="st0" d="M376.55,609.49l-16.56,7.64c-2.71-11.22,1.3-22.12-5.48-24.16l-.42-15.36c11.98-1.26,23.41,7.2,23.13,14.34l-.67,17.53Z"/>
  <polygon class="st0" points="227.14 710.7 210.73 711.72 211.03 691.52 227.41 691.36 227.14 710.7"/>
  <polygon class="st0" points="809.63 710.9 793.29 711.82 793.51 691.5 810 691.38 809.63 710.9"/>
  <polygon class="st0" points="470.42 710.82 454.07 711.77 454.25 691.4 470.56 691.22 470.42 710.82"/>
  <path class="st0" d="M225.73,596.05l-15.22,1.65c.86-6.18,1.27-11.36-.2-17.89l15.37-.41.06,16.66Z"/>
  <path class="st0" d="M468.97,595.8l-14.78,1.96c.11-6.25.97-11.84-.7-18.17l15.29-.26.19,16.48Z"/>
  <path class="st0" d="M808.21,595.96l-14.87,2.08c.28-6.47.92-11.7-.4-18.4l14.97-.3.29,16.63Z"/>
  <path class="st0" d="M425.55,709.89c-5.69,1.42-10.79,1.02-16.46,1.18l-.37-18.46h10.78s6.05,17.28,6.05,17.28Z"/>
  <polygon class="st0" points="805.92 650.86 793.84 651.87 793.22 633.54 805.71 632.69 805.92 650.86"/>
  <polygon class="st0" points="466.78 650.56 454.58 651.57 454.04 633.52 465.98 632.49 466.78 650.56"/>
  <polygon class="st0" points="223.31 650.78 211.33 651.8 210.85 633.53 222.85 632.55 223.31 650.78"/>
</svg>